<svg viewBox="0 0 240 230" xmlns="http://www.w3.org/2000/svg" role="img">
<title>Zee the Outlier — hyped</title>
<rect x="58" y="58" width="140" height="140" fill="#1A1A1A"/>
<rect x="80" y="190" width="14" height="24" fill="#1A1A1A"/>
<rect x="146" y="190" width="14" height="24" fill="#1A1A1A"/>
<rect x="66" y="212" width="28" height="12" fill="#1A1A1A"/>
<rect x="146" y="212" width="28" height="12" fill="#1A1A1A"/>
<rect x="50" y="50" width="140" height="140" fill="#ffde59" stroke="#1A1A1A" stroke-width="6"/>
<path d="M52 140 L30 166" stroke="#1A1A1A" stroke-width="12" stroke-linecap="square"/>
<path d="M188 140 L210 166" stroke="#1A1A1A" stroke-width="12" stroke-linecap="square"/>
<path d="M95 91 L99 102 L110 106 L99 110 L95 121 L91 110 L80 106 L91 102 Z" fill="#1A1A1A"/>
<path d="M145 91 L149 102 L160 106 L149 110 L145 121 L141 110 L130 106 L141 102 Z" fill="#1A1A1A"/>
<path d="M80 80 Q95 68 110 80 M130 80 Q145 68 160 80" stroke="#1A1A1A" stroke-width="7" fill="none" stroke-linecap="square"/>
<path d="M100 138 H140 Q120 166 100 138 Z" fill="#1A1A1A"/>
<path d="M176 44 L196 22" stroke="#1A1A1A" stroke-width="3" stroke-dasharray="6 5"/>
<circle cx="200" cy="17" r="8" fill="#a8275a" stroke="#1A1A1A" stroke-width="4"/>
</svg>
