<svg width="100%" viewBox="0 0 680 1524" role="img" xmlns="http://www.w3.org/2000/svg" font-family="'Space Grotesk','Arial Black',Arial,sans-serif">
<title>Zee the Outlier — mascot character sheet</title>
<desc>Character sheet for Zee, a yellow square data point mascot with six expressions, six poses, palette and build rules.</desc>
<defs>
<g id="shadow"><rect x="58" y="58" width="140" height="140" fill="#1A1A1A"/></g>
<g id="legs">
<rect x="80" y="190" width="14" height="24" fill="#1A1A1A"/>
<rect x="146" y="190" width="14" height="24" fill="#1A1A1A"/>
<rect x="66" y="212" width="28" height="12" fill="#1A1A1A"/>
<rect x="146" y="212" width="28" height="12" fill="#1A1A1A"/>
</g>
<g id="body"><rect x="50" y="50" width="140" height="140" fill="#ffde59" stroke="#1A1A1A" stroke-width="6"/></g>
<g id="armsDown" stroke="#1A1A1A" stroke-width="12" stroke-linecap="square">
<path d="M52 140 L30 166"/><path d="M188 140 L210 166"/>
</g>
<g id="dot">
<path d="M176 44 L196 22" stroke="#1A1A1A" stroke-width="3" stroke-dasharray="6 5"/>
<circle cx="200" cy="17" r="8" fill="#a8275a" stroke="#1A1A1A" stroke-width="4"/>
</g>
<g id="stand"><use href="#shadow"/><use href="#legs"/><use href="#body"/><use href="#armsDown"/></g>
<g id="faceLocked">
<circle cx="95" cy="106" r="9" fill="#1A1A1A"/><circle cx="145" cy="106" r="9" fill="#1A1A1A"/>
<path d="M82 84 L108 92" stroke="#1A1A1A" stroke-width="7" stroke-linecap="square" fill="none"/>
<path d="M158 84 L132 92" stroke="#1A1A1A" stroke-width="7" stroke-linecap="square" fill="none"/>
<path d="M102 146 Q120 157 138 146" stroke="#1A1A1A" stroke-width="6" fill="none" stroke-linecap="square"/>
</g>
<g id="faceHyped">
<path d="M95 91 L99 102 L110 106 L99 110 L95 121 L91 110 L80 106 L91 102 Z" fill="#1A1A1A"/>
<path d="M145 91 L149 102 L160 106 L149 110 L145 121 L141 110 L130 106 L141 102 Z" fill="#1A1A1A"/>
<path d="M80 80 Q95 68 110 80" stroke="#1A1A1A" stroke-width="7" fill="none" stroke-linecap="square"/>
<path d="M130 80 Q145 68 160 80" stroke="#1A1A1A" stroke-width="7" fill="none" stroke-linecap="square"/>
<path d="M100 138 H140 Q120 166 100 138 Z" fill="#1A1A1A"/>
</g>
<g id="faceBrain">
<circle cx="99" cy="100" r="9" fill="#1A1A1A"/><circle cx="149" cy="100" r="9" fill="#1A1A1A"/>
<path d="M80 76 Q95 64 110 76" stroke="#1A1A1A" stroke-width="7" fill="none" stroke-linecap="square"/>
<path d="M134 86 H158" stroke="#1A1A1A" stroke-width="7" stroke-linecap="square"/>
<path d="M106 148 H134" stroke="#1A1A1A" stroke-width="6" stroke-linecap="square"/>
<rect x="40" y="34" width="8" height="8" fill="#1A1A1A"/>
<rect x="26" y="20" width="10" height="10" fill="#1A1A1A"/>
<rect x="10" y="4" width="12" height="12" fill="#1A1A1A"/>
</g>
<g id="faceCooked">
<path d="M87 98 L103 114 M103 98 L87 114" stroke="#1A1A1A" stroke-width="6" stroke-linecap="square" fill="none"/>
<path d="M137 98 L153 114 M153 98 L137 114" stroke="#1A1A1A" stroke-width="6" stroke-linecap="square" fill="none"/>
<path d="M96 150 Q102 143 108 150 T120 150 T132 150 T144 150" stroke="#1A1A1A" stroke-width="6" stroke-linecap="square" fill="none"/>
<path d="M168 60 Q177 74 168 82 Q159 74 168 60 Z" fill="#a2d9f9" stroke="#1A1A1A" stroke-width="3"/>
</g>
<g id="faceSmug">
<path d="M84 102 H106 M134 102 H156" stroke="#1A1A1A" stroke-width="7" stroke-linecap="square" fill="none"/>
<circle cx="97" cy="110" r="5" fill="#1A1A1A"/><circle cx="147" cy="110" r="5" fill="#1A1A1A"/>
<path d="M104 148 Q126 158 140 140" stroke="#1A1A1A" stroke-width="6" fill="none" stroke-linecap="square"/>
</g>
<g id="faceGame">
<rect x="46" y="64" width="148" height="18" fill="#a8275a" stroke="#1A1A1A" stroke-width="4"/>
<path d="M194 68 L218 60 L212 76 Z" fill="#a8275a" stroke="#1A1A1A" stroke-width="3"/>
<path d="M194 76 L216 86 L206 94 Z" fill="#a8275a" stroke="#1A1A1A" stroke-width="3"/>
<rect x="84" y="100" width="20" height="8" fill="#1A1A1A"/>
<rect x="136" y="100" width="20" height="8" fill="#1A1A1A"/>
<path d="M104 148 H136" stroke="#1A1A1A" stroke-width="6" stroke-linecap="square"/>
</g>
</defs>
<rect width="680" height="1524" fill="#FFF6E3"/>
<rect x="28" y="28" width="368" height="58" fill="#1A1A1A"/>
<rect x="20" y="20" width="368" height="58" fill="#ffde59" stroke="#1A1A1A" stroke-width="4"/>
<text x="38" y="60" font-size="30" font-weight="800" fill="#1A1A1A" letter-spacing="1">ZEE THE OUTLIER</text>
<rect x="450" y="30" width="210" height="34" fill="#1A1A1A"/>
<text x="555" y="52" font-size="13" font-weight="700" fill="#FFF6E3" text-anchor="middle" letter-spacing="1">MASCOT SHEET · V1</text>
<rect x="20" y="94" width="236" height="30" fill="#a8275a" stroke="#1A1A1A" stroke-width="3"/>
<text x="32" y="114" font-size="14" font-weight="700" fill="#FFF6E3" letter-spacing="1">AVERAGE IS A CHOICE.</text>
<g transform="translate(40,150)"><use href="#stand"/><use href="#faceLocked"/><use href="#dot"/></g>
<rect x="308" y="158" width="352" height="250" fill="#1A1A1A"/>
<rect x="300" y="150" width="352" height="250" fill="#FFFFFF" stroke="#1A1A1A" stroke-width="4"/>
<text x="318" y="184" font-size="13" fill="#1A1A1A"><tspan font-weight="700">NAME · </tspan>Zee — as in Z-score</text>
<text x="318" y="212" font-size="13" fill="#1A1A1A"><tspan font-weight="700">SPECIES · </tspan>data point that left the curve</text>
<text x="318" y="240" font-size="13" fill="#1A1A1A"><tspan font-weight="700">HOME · </tspan>+2&#963;, right tail, off the chart</text>
<text x="318" y="268" font-size="13" fill="#1A1A1A"><tspan font-weight="700">JOB · </tspan>drag you off the class average</text>
<text x="318" y="296" font-size="13" fill="#1A1A1A"><tspan font-weight="700">LOVES · </tspan>marksheets, weights, winning</text>
<text x="318" y="324" font-size="13" fill="#1A1A1A"><tspan font-weight="700">FEARS · </tspan>the words "good enough"</text>
<rect x="318" y="345" width="214" height="30" fill="#ffde59" stroke="#1A1A1A" stroke-width="3"/>
<text x="330" y="365" font-size="13" font-weight="800" fill="#1A1A1A">SEE YOU AT +2&#963;.</text>
<rect x="20" y="438" width="640" height="36" fill="#1A1A1A"/>
<rect x="26" y="444" width="24" height="24" fill="#ffde59"/>
<text x="62" y="463" font-size="15" font-weight="700" fill="#FFF6E3" letter-spacing="3">EXPRESSIONS</text>
<g transform="translate(45,498) scale(0.62)"><use href="#stand"/><use href="#faceLocked"/><use href="#dot"/></g>
<g transform="translate(265,498) scale(0.62)"><use href="#stand"/><use href="#faceHyped"/><use href="#dot"/></g>
<g transform="translate(485,498) scale(0.62)"><use href="#stand"/><use href="#faceBrain"/><use href="#dot"/></g>
<rect x="54" y="655" width="150" height="26" fill="#1A1A1A"/><rect x="50" y="650" width="150" height="26" fill="#ffde59" stroke="#1A1A1A" stroke-width="3"/>
<text x="125" y="668" font-size="11.5" font-weight="700" fill="#1A1A1A" text-anchor="middle" letter-spacing="1">LOCKED IN</text>
<rect x="274" y="655" width="150" height="26" fill="#1A1A1A"/><rect x="270" y="650" width="150" height="26" fill="#ffde59" stroke="#1A1A1A" stroke-width="3"/>
<text x="345" y="668" font-size="11.5" font-weight="700" fill="#1A1A1A" text-anchor="middle" letter-spacing="1">HYPED</text>
<rect x="494" y="655" width="150" height="26" fill="#1A1A1A"/><rect x="490" y="650" width="150" height="26" fill="#ffde59" stroke="#1A1A1A" stroke-width="3"/>
<text x="565" y="668" font-size="11.5" font-weight="700" fill="#1A1A1A" text-anchor="middle" letter-spacing="1">BIG BRAIN</text>
<g transform="translate(45,700) scale(0.62)"><use href="#stand"/><use href="#faceCooked"/><use href="#dot"/></g>
<g transform="translate(265,700) scale(0.62)"><use href="#stand"/><use href="#faceSmug"/><use href="#dot"/></g>
<g transform="translate(485,700) scale(0.62)"><use href="#stand"/><use href="#faceGame"/><use href="#dot"/></g>
<rect x="54" y="857" width="150" height="26" fill="#1A1A1A"/><rect x="50" y="852" width="150" height="26" fill="#ffde59" stroke="#1A1A1A" stroke-width="3"/>
<text x="125" y="870" font-size="11.5" font-weight="700" fill="#1A1A1A" text-anchor="middle" letter-spacing="1">COOKED</text>
<rect x="274" y="857" width="150" height="26" fill="#1A1A1A"/><rect x="270" y="852" width="150" height="26" fill="#ffde59" stroke="#1A1A1A" stroke-width="3"/>
<text x="345" y="870" font-size="11.5" font-weight="700" fill="#1A1A1A" text-anchor="middle" letter-spacing="1">SMUG</text>
<rect x="494" y="857" width="150" height="26" fill="#1A1A1A"/><rect x="490" y="852" width="150" height="26" fill="#ffde59" stroke="#1A1A1A" stroke-width="3"/>
<text x="565" y="870" font-size="11.5" font-weight="700" fill="#1A1A1A" text-anchor="middle" letter-spacing="1">GAME FACE</text>
<rect x="20" y="906" width="640" height="36" fill="#1A1A1A"/>
<rect x="26" y="912" width="24" height="24" fill="#ffde59"/>
<text x="62" y="931" font-size="15" font-weight="700" fill="#FFF6E3" letter-spacing="3">POSES</text>
<g transform="translate(45,966) scale(0.62)">
<use href="#shadow"/><use href="#legs"/><use href="#body"/>
<path d="M52 140 L30 166" stroke="#1A1A1A" stroke-width="12" stroke-linecap="square"/>
<path d="M188 126 L212 94" stroke="#1A1A1A" stroke-width="12" stroke-linecap="square"/>
<path d="M198 88 L234 46" stroke="#006761" stroke-width="9" stroke-linecap="square"/>
<polygon points="244,34 218,42 234,58" fill="#006761"/>
<use href="#faceLocked"/>
</g>
<g transform="translate(265,966) scale(0.62)">
<use href="#shadow"/><use href="#legs"/><use href="#body"/>
<path d="M52 138 L76 160" stroke="#1A1A1A" stroke-width="12" stroke-linecap="square"/>
<path d="M188 138 L164 160" stroke="#1A1A1A" stroke-width="12" stroke-linecap="square"/>
<path d="M84 94 H106 M134 94 H156" stroke="#1A1A1A" stroke-width="6" stroke-linecap="square" fill="none"/>
<circle cx="95" cy="110" r="8" fill="#1A1A1A"/><circle cx="145" cy="110" r="8" fill="#1A1A1A"/>
<rect x="72" y="148" width="48" height="38" fill="#FFF6E3" stroke="#1A1A1A" stroke-width="4"/>
<rect x="120" y="148" width="48" height="38" fill="#FFF6E3" stroke="#1A1A1A" stroke-width="4"/>
<path d="M80 158 H112 M80 166 H112 M128 158 H160 M128 166 H160" stroke="#1A1A1A" stroke-width="2.5" fill="none"/>
<use href="#dot"/>
</g>
<g transform="translate(485,966) scale(0.62)">
<use href="#shadow"/><use href="#legs"/><use href="#body"/>
<path d="M52 128 L32 94" stroke="#1A1A1A" stroke-width="12" stroke-linecap="square"/>
<path d="M188 128 L208 94" stroke="#1A1A1A" stroke-width="12" stroke-linecap="square"/>
<path d="M188 36 H232 L225 60 Q210 70 195 60 Z" fill="#ffde59" stroke="#1A1A1A" stroke-width="5"/>
<rect x="206" y="68" width="8" height="8" fill="#1A1A1A"/>
<rect x="196" y="76" width="28" height="9" fill="#1A1A1A"/>
<rect x="36" y="22" width="9" height="9" fill="#a8275a" transform="rotate(20 40 26)"/>
<rect x="92" y="6" width="9" height="9" fill="#006761" transform="rotate(-15 96 10)"/>
<rect x="150" y="16" width="9" height="9" fill="#a2d9f9" transform="rotate(30 154 20)"/>
<rect x="24" y="72" width="9" height="9" fill="#006761" transform="rotate(10 28 76)"/>
<use href="#faceHyped"/>
</g>
<rect x="54" y="1123" width="150" height="26" fill="#1A1A1A"/><rect x="50" y="1118" width="150" height="26" fill="#ffde59" stroke="#1A1A1A" stroke-width="3"/>
<text x="125" y="1136" font-size="11.5" font-weight="700" fill="#1A1A1A" text-anchor="middle" letter-spacing="1">TREND SPOTTER</text>
<rect x="274" y="1123" width="150" height="26" fill="#1A1A1A"/><rect x="270" y="1118" width="150" height="26" fill="#ffde59" stroke="#1A1A1A" stroke-width="3"/>
<text x="345" y="1136" font-size="11.5" font-weight="700" fill="#1A1A1A" text-anchor="middle" letter-spacing="1">STUDY MODE</text>
<rect x="494" y="1123" width="150" height="26" fill="#1A1A1A"/><rect x="490" y="1118" width="150" height="26" fill="#ffde59" stroke="#1A1A1A" stroke-width="3"/>
<text x="565" y="1136" font-size="11.5" font-weight="700" fill="#1A1A1A" text-anchor="middle" letter-spacing="1">DUB SECURED</text>
<g transform="translate(42,1180) scale(0.62)">
<line x1="8" y1="214" x2="248" y2="214" stroke="#1A1A1A" stroke-width="5"/>
<path d="M16 210 C42 210 46 118 74 118 C102 118 106 210 132 210" stroke="#1A1A1A" stroke-width="4" fill="none"/>
<path d="M74 110 Q124 26 178 92" stroke="#a8275a" stroke-width="3.5" stroke-dasharray="7 6" fill="none"/>
<g transform="translate(136,98) scale(0.52)"><use href="#stand"/><use href="#faceSmug"/><use href="#dot"/></g>
</g>
<g transform="translate(265,1180) scale(0.62)">
<path d="M4 96 H30 M8 126 H34 M4 156 H30" stroke="#1A1A1A" stroke-width="5" stroke-linecap="square" fill="none"/>
<g transform="rotate(-10 120 140)">
<use href="#shadow"/>
<path d="M92 188 L68 210" stroke="#1A1A1A" stroke-width="13" stroke-linecap="square"/>
<rect x="50" y="204" width="26" height="11" fill="#1A1A1A"/>
<path d="M148 188 L170 200" stroke="#1A1A1A" stroke-width="13" stroke-linecap="square"/>
<rect x="166" y="194" width="26" height="11" fill="#1A1A1A"/>
<use href="#body"/>
<path d="M52 130 L34 104" stroke="#1A1A1A" stroke-width="12" stroke-linecap="square"/>
<path d="M188 132 L214 120" stroke="#1A1A1A" stroke-width="12" stroke-linecap="square"/>
<path d="M84 88 L106 80 M156 88 L134 80" stroke="#1A1A1A" stroke-width="7" stroke-linecap="square" fill="none"/>
<circle cx="95" cy="106" r="8" fill="#1A1A1A"/><circle cx="145" cy="106" r="8" fill="#1A1A1A"/>
<path d="M104 148 Q110 142 116 148 T128 148" stroke="#1A1A1A" stroke-width="5" stroke-linecap="square" fill="none"/>
<path d="M170 54 Q177 66 170 73 Q163 66 170 54 Z" fill="#a2d9f9" stroke="#1A1A1A" stroke-width="3"/>
</g>
</g>
<g transform="translate(485,1180) scale(0.62)">
<use href="#shadow"/><use href="#legs"/><use href="#body"/>
<path d="M52 140 L30 166" stroke="#1A1A1A" stroke-width="12" stroke-linecap="square"/>
<path d="M188 142 L200 154" stroke="#1A1A1A" stroke-width="12" stroke-linecap="square"/>
<rect x="194" y="138" width="32" height="36" fill="#FFF6E3" stroke="#1A1A1A" stroke-width="4"/>
<path d="M226 146 Q242 156 226 168" stroke="#1A1A1A" stroke-width="4" fill="none"/>
<path d="M202 128 Q206 118 202 108 M216 128 Q220 118 216 108" stroke="#1A1A1A" stroke-width="3" fill="none" stroke-linecap="square"/>
<path d="M84 102 H106 M134 102 H156" stroke="#1A1A1A" stroke-width="7" stroke-linecap="square" fill="none"/>
<path d="M106 146 Q120 155 134 146" stroke="#1A1A1A" stroke-width="6" fill="none" stroke-linecap="square"/>
<use href="#dot"/>
</g>
<rect x="54" y="1337" width="150" height="26" fill="#1A1A1A"/><rect x="50" y="1332" width="150" height="26" fill="#ffde59" stroke="#1A1A1A" stroke-width="3"/>
<text x="125" y="1350" font-size="11.5" font-weight="700" fill="#1A1A1A" text-anchor="middle" letter-spacing="1">OFF THE CURVE</text>
<rect x="274" y="1337" width="150" height="26" fill="#1A1A1A"/><rect x="270" y="1332" width="150" height="26" fill="#ffde59" stroke="#1A1A1A" stroke-width="3"/>
<text x="345" y="1350" font-size="11.5" font-weight="700" fill="#1A1A1A" text-anchor="middle" letter-spacing="1">DEADLINE SPRINT</text>
<rect x="494" y="1337" width="150" height="26" fill="#1A1A1A"/><rect x="490" y="1332" width="150" height="26" fill="#ffde59" stroke="#1A1A1A" stroke-width="3"/>
<text x="565" y="1350" font-size="11.5" font-weight="700" fill="#1A1A1A" text-anchor="middle" letter-spacing="1">FUEL UP</text>
<rect x="20" y="1382" width="640" height="36" fill="#1A1A1A"/>
<rect x="26" y="1388" width="24" height="24" fill="#ffde59"/>
<text x="62" y="1407" font-size="15" font-weight="700" fill="#FFF6E3" letter-spacing="3">PALETTE + BUILD RULES</text>
<rect x="25" y="1441" width="46" height="46" fill="#1A1A1A"/><rect x="20" y="1436" width="46" height="46" fill="#1A1A1A" stroke="#1A1A1A" stroke-width="3"/>
<text x="43" y="1502" font-size="11" fill="#1A1A1A" text-anchor="middle">#1A1A1A</text>
<rect x="115" y="1441" width="46" height="46" fill="#1A1A1A"/><rect x="110" y="1436" width="46" height="46" fill="#ffde59" stroke="#1A1A1A" stroke-width="3"/>
<text x="133" y="1502" font-size="11" fill="#1A1A1A" text-anchor="middle">#ffde59</text>
<rect x="205" y="1441" width="46" height="46" fill="#1A1A1A"/><rect x="200" y="1436" width="46" height="46" fill="#FFF6E3" stroke="#1A1A1A" stroke-width="3"/>
<text x="223" y="1502" font-size="11" fill="#1A1A1A" text-anchor="middle">#FFF6E3</text>
<rect x="295" y="1441" width="46" height="46" fill="#1A1A1A"/><rect x="290" y="1436" width="46" height="46" fill="#a8275a" stroke="#1A1A1A" stroke-width="3"/>
<text x="313" y="1502" font-size="11" fill="#1A1A1A" text-anchor="middle">#a8275a</text>
<rect x="385" y="1441" width="46" height="46" fill="#1A1A1A"/><rect x="380" y="1436" width="46" height="46" fill="#006761" stroke="#1A1A1A" stroke-width="3"/>
<text x="403" y="1502" font-size="11" fill="#1A1A1A" text-anchor="middle">#006761</text>
<text x="470" y="1450" font-size="11.5" font-weight="700" fill="#1A1A1A">Borders: 4-6px ink. Always.</text>
<text x="470" y="1468" font-size="11.5" fill="#1A1A1A">Shadows: hard offset, +8/+8.</text>
<text x="470" y="1486" font-size="11.5" fill="#1A1A1A">Corners: square. No gradients.</text>
<text x="470" y="1504" font-size="11.5" fill="#1A1A1A">The dot goes where Zee goes.</text>
</svg>
