<svg viewBox="0 0 240 230" xmlns="http://www.w3.org/2000/svg" role="img">
<title>Zee the Outlier — big brain</title>
<rect x="58" y="58" width="140" height="140" fill="#1A1A1A"/>
<rect x="80" y="190" width="14" height="24" fill="#1A1A1A"/>
<rect x="146" y="190" width="14" height="24" fill="#1A1A1A"/>
<rect x="66" y="212" width="28" height="12" fill="#1A1A1A"/>
<rect x="146" y="212" width="28" height="12" fill="#1A1A1A"/>
<rect x="50" y="50" width="140" height="140" fill="#ffde59" stroke="#1A1A1A" stroke-width="6"/>
<path d="M52 140 L30 166" stroke="#1A1A1A" stroke-width="12" stroke-linecap="square"/>
<path d="M188 140 L210 166" stroke="#1A1A1A" stroke-width="12" stroke-linecap="square"/>
<circle cx="99" cy="100" r="9" fill="#1A1A1A"/><circle cx="149" cy="100" r="9" fill="#1A1A1A"/>
<path d="M80 76 Q95 64 110 76" stroke="#1A1A1A" stroke-width="7" fill="none" stroke-linecap="square"/>
<path d="M134 86 H158" stroke="#1A1A1A" stroke-width="7" stroke-linecap="square"/>
<path d="M106 148 H134" stroke="#1A1A1A" stroke-width="6" stroke-linecap="square"/>
<rect x="40" y="34" width="8" height="8" fill="#1A1A1A"/>
<rect x="26" y="20" width="10" height="10" fill="#1A1A1A"/>
<rect x="10" y="4" width="12" height="12" fill="#1A1A1A"/>
<path d="M176 44 L196 22" stroke="#1A1A1A" stroke-width="3" stroke-dasharray="6 5"/>
<circle cx="200" cy="17" r="8" fill="#a8275a" stroke="#1A1A1A" stroke-width="4"/>
</svg>
