<svg viewBox="0 0 240 230" xmlns="http://www.w3.org/2000/svg" role="img">
<title>Zee the Outlier — cooked</title>
<rect x="58" y="58" width="140" height="140" fill="#1A1A1A"/>
<rect x="80" y="190" width="14" height="24" fill="#1A1A1A"/>
<rect x="146" y="190" width="14" height="24" fill="#1A1A1A"/>
<rect x="66" y="212" width="28" height="12" fill="#1A1A1A"/>
<rect x="146" y="212" width="28" height="12" fill="#1A1A1A"/>
<rect x="50" y="50" width="140" height="140" fill="#ffde59" stroke="#1A1A1A" stroke-width="6"/>
<path d="M52 140 L30 166" stroke="#1A1A1A" stroke-width="12" stroke-linecap="square"/>
<path d="M188 140 L210 166" stroke="#1A1A1A" stroke-width="12" stroke-linecap="square"/>
<path d="M87 98 L103 114 M103 98 L87 114 M137 98 L153 114 M153 98 L137 114" stroke="#1A1A1A" stroke-width="6" stroke-linecap="square" fill="none"/>
<path d="M96 150 Q102 143 108 150 T120 150 T132 150 T144 150" stroke="#1A1A1A" stroke-width="6" stroke-linecap="square" fill="none"/>
<path d="M168 60 Q177 74 168 82 Q159 74 168 60 Z" fill="#a2d9f9" stroke="#1A1A1A" stroke-width="3"/>
<path d="M176 44 L196 22" stroke="#1A1A1A" stroke-width="3" stroke-dasharray="6 5"/>
<circle cx="200" cy="17" r="8" fill="#a8275a" stroke="#1A1A1A" stroke-width="4"/>
</svg>
