<svg viewBox="0 0 250 230" xmlns="http://www.w3.org/2000/svg" role="img">
<title>Zee the Outlier — dub secured</title>
<rect x="58" y="58" width="140" height="140" fill="#1A1A1A"/>
<rect x="80" y="190" width="14" height="24" fill="#1A1A1A"/>
<rect x="146" y="190" width="14" height="24" fill="#1A1A1A"/>
<rect x="66" y="212" width="28" height="12" fill="#1A1A1A"/>
<rect x="146" y="212" width="28" height="12" fill="#1A1A1A"/>
<rect x="50" y="50" width="140" height="140" fill="#ffde59" stroke="#1A1A1A" stroke-width="6"/>
<path d="M52 128 L32 94" stroke="#1A1A1A" stroke-width="12" stroke-linecap="square"/>
<path d="M188 128 L208 94" stroke="#1A1A1A" stroke-width="12" stroke-linecap="square"/>
<path d="M188 36 H232 L225 60 Q210 70 195 60 Z" fill="#ffde59" stroke="#1A1A1A" stroke-width="5"/>
<rect x="206" y="68" width="8" height="8" fill="#1A1A1A"/>
<rect x="196" y="76" width="28" height="9" fill="#1A1A1A"/>
<rect x="36" y="22" width="9" height="9" fill="#a8275a" transform="rotate(20 40 26)"/>
<rect x="92" y="6" width="9" height="9" fill="#006761" transform="rotate(-15 96 10)"/>
<rect x="150" y="16" width="9" height="9" fill="#a2d9f9" transform="rotate(30 154 20)"/>
<rect x="24" y="72" width="9" height="9" fill="#006761" transform="rotate(10 28 76)"/>
<path d="M95 91 L99 102 L110 106 L99 110 L95 121 L91 110 L80 106 L91 102 Z" fill="#1A1A1A"/>
<path d="M145 91 L149 102 L160 106 L149 110 L145 121 L141 110 L130 106 L141 102 Z" fill="#1A1A1A"/>
<path d="M80 80 Q95 68 110 80 M130 80 Q145 68 160 80" stroke="#1A1A1A" stroke-width="7" fill="none" stroke-linecap="square"/>
<path d="M100 138 H140 Q120 166 100 138 Z" fill="#1A1A1A"/>
</svg>
